 http://desibbrg.org/images/66952052392581364616.gif 
http://desibbrg.org/images/88075338752205611649.jpg 
http://desibbrg.org/images/57590935110518907984.png 
http://desibbrg.org/images/29052953997767343271.png 
http://desibbrg.org/images/59055790832094295569.png 
http://desibbrg.org/images/63237748980397699219.png

Media Info - 
Video
ID : 224 (0xE0)
Format : MPEG Video
Format version : Version 1
Format settings, BVOP : Yes
Format settings, Matrix : Custom
Duration : 2h 6mn
Bit rate mode : Variable
Bit rate : 672 Kbps
Width : 352 pixels
Height : 288 pixels
Display aspect ratio : 4:3
Frame rate : 25.000 fps
Standard : PAL
Color space : YUV
Bit depth : 8 bits
Scan type : Progressive
Compression mode : Lossy
Bits/(Pixel*Frame) : 0.265
Stream size : 607 MiB (89%)
Writing library : TMPGEnc Video Mastering Works 5 Version. 5.0.5.32

Audio
ID : 192 (0xC0)
Format : MPEG Audio
Format version : Version 1
Format profile : Layer 2
Duration : 2h 6mn
Bit rate mode : Constant
Bit rate : 64.0 Kbps
Channel(s) : 2 channels
Sampling rate : 48.0 KHz
Compression mode : Lossy
Stream size : 58.1 MiB (9%)

Ripper : Master King

Seeding 24x7... Extreme Seeding...


Enjoy!
